<?xml version="1.0" ?>
<!-- Uploaded to: SVG Repo, www.svgrepo.com, Generator: SVG Repo Mixer Tools -->
<svg width="800px" height="800px" viewBox="-7.5 0 60 60" version="1.1" xmlns="http://www.w3.org/2000/svg" xmlns:xlink="http://www.w3.org/1999/xlink">
<title/>
<desc/>
<g fill="none" fill-rule="evenodd" id="Page-1" stroke="none" stroke-width="1">
<g fill="#000000" id="007---Coffee-Cup" transform="translate(0.000000, -1.000000)">
<path d="M43,6 L38,6 L38,2 C38.0001432,1.72343905 37.8857463,1.45916768 37.684,1.27 C37.4834127,1.078018 37.2109283,0.979923624 36.934,1 L36.567,1.025 C26.8663432,1.66899894 17.1336568,1.66899894 7.433,1.025 L7.066,1 C6.78936871,0.979392639 6.51692599,1.07674551 6.316,1.268 C6.11374528,1.45764282 5.99930269,1.72274401 6,2 L6,6 L2,6 C0.8954305,6 0,6.8954305 0,8 L0,10 C0,11.1045695 0.8954305,12 2,12 L3.2,12 L4.223,22.228 C3.47213828,22.5997189 3.03996602,23.4070295 3.147,24.238 L5.906,47.238 C5.98080632,47.8540081 6.33730906,48.4003994 6.871,48.717 L8.005,60.1 C8.05654198,60.6129013 8.48952193,61.0025832 9.005,61 L35,61 C35.5154781,61.0025832 35.948458,60.6129013 36,60.1 L37.139,48.717 C37.6726909,48.4003994 38.0291937,47.8540081 38.104,47.238 L40.863,24.238 C40.9706238,23.4064013 40.5384039,22.5981982 39.787,22.226 L40.805,12 L43,12 C44.1045695,12 45,11.1045695 45,10 L45,8 C45,6.8954305 44.1045695,6 43,6 Z M8,3.068 C17.3240092,3.65800047 26.6759908,3.65800047 36,3.068 L36,6 L8,6 L8,3.068 Z M34.1,59 L9.905,59 L8.905,49 L35.1,49 L34.1,59 Z M36.119,47 L7.888,47 L5.127,24 L38.872,24 L36.119,47 Z M37.8,22 L6.205,22 L5.205,12 L38.8,12 L37.8,22 Z M39.9,10 L2,10 L2,8 L43,8 L43,10 L39.9,10 Z" fill-rule="nonzero" id="Shape"/>
<path d="M8.919,20 C8.95230608,20.0019063 8.98569392,20.0019063 9.019,20 C9.28385149,19.9735222 9.52721877,19.8425482 9.69520599,19.6360835 C9.8631932,19.4296188 9.94193741,19.1647015 9.914,18.9 L9.514,14.9 C9.45877151,14.3502005 8.96829946,13.9492715 8.4185,14.0045 C7.86870054,14.0597285 7.46777154,14.5502005 7.523,15.1 L7.923,19.1 C7.97439457,19.6113722 8.40505194,20.0005204 8.919,20 Z" id="Path"/>
<path d="M12.12,51.005 C11.8561082,51.0315185 11.6135598,51.161783 11.4457141,51.3671362 C11.2778684,51.5724893 11.198475,51.8361089 11.225,52.1 L11.625,56.1 C11.676318,56.6106104 12.1058175,56.9994932 12.619,57 C12.652,57 12.686,57 12.719,56.995 C12.9828918,56.9684815 13.2254402,56.838217 13.3932859,56.6328638 C13.5611316,56.4275107 13.640525,56.1638911 13.614,55.9 L13.214,51.9 C13.1587662,51.3509039 12.6691549,50.9503535 12.12,51.005 Z" id="Path"/>
<path d="M8.868,29.993 C9.13137177,29.9614659 9.37142487,29.8265854 9.53533694,29.6180382 C9.69924901,29.409491 9.77358943,29.1443651 9.742,28.881 L9.502,26.881 C9.43627811,26.3325812 8.93841876,25.9412781 8.39,26.007 C7.84158124,26.0727219 7.45027811,26.5705812 7.516,27.119 L7.756,29.119 C7.8162038,29.6213211 8.24208423,29.9995476 8.748,30 C8.78810576,30.0001319 8.82818159,29.9977941 8.868,29.993 Z" id="Path"/>
<path d="M9.109,32.007 C8.84562823,32.0385341 8.60557513,32.1734146 8.44166306,32.3819618 C8.27775099,32.590509 8.20341057,32.8556349 8.235,33.119 L9.435,43.119 C9.4952038,43.6213211 9.92108423,43.9995476 10.427,44 C10.4671058,44.0001319 10.5071816,43.9977941 10.547,43.993 C10.8103718,43.9614659 11.0504249,43.8265854 11.2143369,43.6180382 C11.378249,43.409491 11.4525894,43.1443651 11.421,42.881 L10.221,32.881 C10.1894659,32.6176282 10.0545854,32.3775751 9.84603821,32.2136631 C9.63749104,32.049751 9.37236514,31.9754106 9.109,32.007 Z" id="Path"/>
</g>
</g>
</svg>